# ProBuilder 5.2.4
# https://unity3d.com/unity/features/worldbuilding/probuilder
# 4/15/2026 6:27:31 PM

mtllib ./Room.mtl
o Room

g Room
v 4.837848 4.768372E-07 4.953396
v -4.874203 4.768372E-07 4.953396
v 4.837848 4.044691 4.953396
v -4.874203 4.044691 4.953396
v -4.874203 4.768372E-07 -5.011021
v -4.874203 4.044691 -5.011021
v 4.837848 4.768372E-07 -5.011021
v 4.837848 4.044691 -5.011021

vt -9.712051 0
vt 0 0
vt -9.712051 4.04469
vt 0 4.04469
vt -9.964417 0
vt -9.964417 4.04469
vt 9.712051 0
vt 9.712051 4.04469
vt 9.964417 0
vt 9.964417 4.04469
vt 9.712051 9.964417
vt 0 9.964417
vt -9.712051 9.964417

vn 0 0 -1
vn 1 0 0
vn 0 0 1
vn -1 0 0
vn 0 -1 0
vn 0 1 0

usemtl ProBuilderDefault
f 1/1/1 2/2/1 4/4/1 3/3/1
f 2/5/2 5/2/2 6/4/2 4/6/2
f 5/2/3 7/7/3 8/8/3 6/4/3
f 7/2/4 1/9/4 3/10/4 8/4/4
f 3/11/5 4/12/5 6/2/5 8/7/5
f 7/1/6 5/2/6 2/12/6 1/13/6

